<?xml version="1.0" encoding="utf-8"?>
<svg version="1.1" xmlns:xlink="http://www.w3.org/1999/xlink" width="9px" height="9px" xmlns="http://www.w3.org/2000/svg">
  <g transform="matrix(1 0 0 1 -402 -9 )">
    <path d="M 406.5 9.5  C 408.74 9.5  410.5 11.26  410.5 13.5  C 410.5 15.74  408.74 17.5  406.5 17.5  C 404.26 17.5  402.5 15.74  402.5 13.5  C 402.5 11.26  404.26 9.5  406.5 9.5  Z " fill-rule="nonzero" fill="#ffffff" stroke="none" />
    <path d="M 406.5 9.5  C 408.74 9.5  410.5 11.26  410.5 13.5  C 410.5 15.74  408.74 17.5  406.5 17.5  C 404.26 17.5  402.5 15.74  402.5 13.5  C 402.5 11.26  404.26 9.5  406.5 9.5  Z " stroke-width="1" stroke="#5e6c84" fill="none" stroke-opacity="0.498039215686275" />
  </g>
</svg>