<?xml version="1.0" encoding="utf-8"?>
<svg version="1.1" xmlns:xlink="http://www.w3.org/1999/xlink" width="9px" height="9px" xmlns="http://www.w3.org/2000/svg">
  <g transform="matrix(1 0 0 1 -389 -9 )">
    <path d="M 393.5 9.5  C 395.74 9.5  397.5 11.26  397.5 13.5  C 397.5 15.74  395.74 17.5  393.5 17.5  C 391.26 17.5  389.5 15.74  389.5 13.5  C 389.5 11.26  391.26 9.5  393.5 9.5  Z " fill-rule="nonzero" fill="#ffffff" stroke="none" fill-opacity="0" />
    <path d="M 393.5 9.5  C 395.74 9.5  397.5 11.26  397.5 13.5  C 397.5 15.74  395.74 17.5  393.5 17.5  C 391.26 17.5  389.5 15.74  389.5 13.5  C 389.5 11.26  391.26 9.5  393.5 9.5  Z " stroke-width="1" stroke="#5e6c84" fill="none" stroke-opacity="0.498039215686275" />
  </g>
</svg>